<svg width="1200" height="300" viewBox="0 0 1200 300" fill="none" xmlns="http://www.w3.org/2000/svg">
  <defs>
    <linearGradient id="bg" x1="0" y1="0" x2="1200" y2="300" gradientUnits="userSpaceOnUse">
      <stop stop-color="#020617"/>
      <stop offset="0.55" stop-color="#071426"/>
      <stop offset="1" stop-color="#020617"/>
    </linearGradient>
    <linearGradient id="edge" x1="40" y1="30" x2="1160" y2="270" gradientUnits="userSpaceOnUse">
      <stop stop-color="#38BDF8" stop-opacity="0.48"/>
      <stop offset="0.5" stop-color="#0056B3" stop-opacity="0.18"/>
      <stop offset="1" stop-color="#38BDF8" stop-opacity="0.34"/>
    </linearGradient>
    <filter id="glow" x="-200%" y="-200%" width="500%" height="500%"><feGaussianBlur stdDeviation="10"/></filter>
  </defs>
  <rect width="1200" height="300" rx="24" fill="url(#bg)"/>
  <rect x="28" y="28" width="1144" height="244" rx="20" fill="#061222" stroke="url(#edge)"/>
  <rect x="64" y="60" width="210" height="34" rx="17" fill="#08192D" stroke="#38BDF8" stroke-opacity="0.25"/>
  <text x="169" y="82" text-anchor="middle" fill="#A8DFFF" font-family="Inter, Segoe UI, Arial, sans-serif" font-size="14" font-weight="700" letter-spacing="1.7">COMPANY / DIGITAL PRODUCT</text>
  <text x="64" y="139" fill="#F8FAFC" font-family="Inter, Segoe UI, Arial, sans-serif" font-size="42" font-weight="800" letter-spacing="0.4">GANDRA TECNOLOGIA</text>
  <text x="64" y="178" fill="#B8CBE0" font-family="Inter, Segoe UI, Arial, sans-serif" font-size="20">Technology brand and product ecosystem focused on software and digital experiences.</text>
  <text x="64" y="208" fill="#B8CBE0" font-family="Inter, Segoe UI, Arial, sans-serif" font-size="20">Current web implementation emphasizes motion, interaction and modern frontend engineering.</text>
  <text x="64" y="246" fill="#7F9BB8" font-family="JetBrains Mono, Consolas, monospace" font-size="14" letter-spacing="0.8">NEXT.JS 16  /  REACT 19  /  TYPESCRIPT  /  GSAP  /  LENIS  /  PLAYWRIGHT</text>
  <circle cx="1085" cy="150" r="54" fill="#0056B3" opacity="0.10" filter="url(#glow)"/>
  <circle cx="1085" cy="150" r="48" fill="none" stroke="#38BDF8" stroke-opacity="0.42"/>
  <circle cx="1085" cy="150" r="24" fill="#071A31" stroke="#38BDF8" stroke-opacity="0.48"/>
  <circle cx="1085" cy="150" r="4.5" fill="#DDF6FF"/>
  <line x1="1037" y1="150" x2="1000" y2="150" stroke="#38BDF8" stroke-opacity="0.34"/>
  <line x1="1133" y1="150" x2="1170" y2="150" stroke="#38BDF8" stroke-opacity="0.34"/>
  <line x1="1085" y1="102" x2="1085" y2="75" stroke="#38BDF8" stroke-opacity="0.34"/>
  <line x1="1085" y1="198" x2="1085" y2="225" stroke="#38BDF8" stroke-opacity="0.34"/>
  <rect x="1" y="1" width="1198" height="298" rx="23" stroke="#38BDF8" stroke-opacity="0.06"/>
</svg>